<svg xmlns="http://www.w3.org/2000/svg" xmlns:xlink="http://www.w3.org/1999/xlink" width="100" height="100" viewBox="0 0 100 100"><circle stroke="none" fill="#1c2541" r="48%" cx="50%" cy="50%"></circle><g transform="translate(50 50) scale(0.69 0.69) rotate(0) translate(-50 -50)" style="fill:#6fffe9"><svg fill="#6fffe9" xmlns="http://www.w3.org/2000/svg" viewBox="0 0 64 64" x="0px" y="0px"><g><path d="M14,36a18.006,18.006,0,0,1,9.79156-16H4V52H23.79156A18.006,18.006,0,0,1,14,36ZM8,49a1,1,0,0,1-2,0V47a1,1,0,0,1,2,0Zm4,0a1,1,0,0,1-2,0V47a1,1,0,0,1,2,0Z"></path><path d="M48,36A16,16,0,1,0,32,52,16.01833,16.01833,0,0,0,48,36ZM32,49A13,13,0,1,1,45,36,13.01474,13.01474,0,0,1,32,49Z"></path><path d="M32,25A11,11,0,1,0,43,36,11.01245,11.01245,0,0,0,32,25Zm0,5a6.00657,6.00657,0,0,0-6,6,1,1,0,0,1-2,0,8.00917,8.00917,0,0,1,8-8,1,1,0,0,1,0,2Z"></path><rect x="6" y="16" width="8" height="2"></rect><rect x="20" y="16" width="4" height="2"></rect><circle cx="51" cy="47" r="1"></circle><rect x="50" y="12" width="6" height="2"></rect><path d="M50,36a18.006,18.006,0,0,1-9.79156,16H60V20H40.20844A18.006,18.006,0,0,1,50,36Zm4,11a3,3,0,1,1-3-3A3.00328,3.00328,0,0,1,54,47Z"></path><path d="M46,18H60V8H46Zm2-7a.99974.99974,0,0,1,1-1h8a.99974.99974,0,0,1,1,1v4a.99974.99974,0,0,1-1,1H49a.99974.99974,0,0,1-1-1Z"></path></g></svg></g></svg>